<svg version="1.1" id="Layer_1" xmlns="http://www.w3.org/2000/svg" xmlns:xlink="http://www.w3.org/1999/xlink" x="0px" y="0px"
	 width="100%" viewBox="0 0 282 116" enable-background="new 0 0 282 116" xml:space="preserve">
<path fill="#FEFEFE" opacity="1.000000" stroke="none" 
	d="
M259.000061,117.000000 
	C172.666718,117.000000 86.833397,117.000000 1.000057,117.000000 
	C1.000038,78.333366 1.000038,39.666733 1.000019,1.000073 
	C94.999947,1.000049 188.999893,1.000049 282.999878,1.000024 
	C282.999939,39.666611 282.999939,78.333221 282.999969,116.999916 
	C275.166687,117.000000 267.333374,117.000000 259.000061,117.000000 
M60.723194,48.980049 
	C64.164093,48.844231 65.849373,46.732224 64.609032,43.814400 
	C64.040657,42.477333 60.615784,41.067116 59.265213,41.613907 
	C56.314846,42.808376 56.033787,45.480061 58.218605,48.723721 
	C55.274551,50.514400 52.369274,52.373203 49.375862,54.077179 
	C46.191372,55.889927 46.702267,58.039665 48.916000,60.025265 
	C51.638477,62.467182 53.677742,64.968109 53.091061,68.991714 
	C52.969700,69.824028 54.346725,70.874825 55.033157,71.824928 
	C55.698040,70.852341 57.039616,69.778854 56.912220,68.924393 
	C56.318653,64.943268 55.319031,61.022690 54.464645,57.080452 
	C53.916866,57.078644 53.369087,57.076832 52.821312,57.075020 
	C54.016479,56.137154 55.211651,55.199287 56.406822,54.261417 
	C56.333714,54.732208 56.260601,55.202995 56.187492,55.673786 
	C58.493904,56.794487 60.717770,58.205841 63.146561,58.895641 
	C64.145592,59.179371 65.585823,57.909618 66.825371,57.346485 
	C65.818535,56.551067 64.588905,55.920540 63.852249,54.925167 
	C62.413250,52.980801 61.249741,50.832554 60.723194,48.980049 
M120.052307,71.796143 
	C123.352425,70.161133 125.280426,67.638901 124.779282,63.826199 
	C124.264336,59.908424 121.398796,58.392147 117.940231,57.569695 
	C116.167885,57.148235 114.305069,56.844009 112.709312,56.038647 
	C111.697693,55.528099 110.310036,53.982738 110.497688,53.273785 
	C110.815697,52.072300 112.213158,50.349335 113.215904,50.308876 
	C115.142479,50.231144 117.149628,51.065567 119.048782,51.733631 
	C120.589684,52.275665 122.021469,53.127914 124.264420,54.210861 
	C122.524590,46.734348 115.698761,43.715626 109.923157,47.173809 
	C107.871758,48.402103 105.778992,51.532101 105.831375,53.743607 
	C105.882782,55.913761 108.284737,58.486496 110.310753,60.011562 
	C112.037346,61.311237 114.818542,61.110008 116.895889,62.080643 
	C118.163078,62.672726 119.879097,64.320641 119.773285,65.323349 
	C119.641624,66.571083 117.875778,68.548500 116.750183,68.594086 
	C114.659195,68.678780 112.476166,67.713257 110.415993,66.955246 
	C108.725266,66.333176 107.157112,65.377937 104.690353,64.150154 
	C106.871277,71.857285 110.887604,73.685501 120.052307,71.796143 
M144.783707,68.298470 
	C142.922913,66.315727 142.922913,66.315742 139.579178,68.069321 
	C135.701889,70.102722 133.383911,68.635185 133.111740,63.473331 
	C137.200882,63.473331 141.268784,63.473331 145.475098,63.473331 
	C145.212784,58.479702 144.564285,54.317127 139.407440,52.785229 
	C134.996384,51.474880 130.842361,53.181126 128.813202,57.116699 
	C126.578659,61.450611 127.839966,68.266983 131.349136,70.821465 
	C135.036972,73.506004 140.405136,72.706635 144.783707,68.298470 
M193.090820,70.977631 
	C194.501129,71.410278 195.911423,71.842934 197.838150,72.434006 
	C197.838150,67.752228 197.913483,63.785496 197.817520,59.822906 
	C197.716171,55.637447 195.869415,52.931030 191.336060,52.608833 
	C187.140976,52.310684 183.567627,52.982952 181.923370,57.711128 
	C192.220535,58.285728 192.728470,58.414742 192.674515,60.728264 
	C190.748657,60.832340 188.589127,60.452541 186.889648,61.167015 
	C184.782806,62.052746 182.481369,63.507683 181.387268,65.374916 
	C180.752686,66.457886 181.801941,69.671570 183.023804,70.432426 
	C184.897202,71.599022 187.561630,71.669746 189.913483,71.805893 
	C190.826523,71.858749 191.802505,70.824287 193.090820,70.977631 
M201.973328,68.289627 
	C201.500809,71.653450 202.733871,72.906952 206.467239,71.448593 
	C206.467239,67.942635 206.046463,64.226654 206.648392,60.684456 
	C206.940399,58.966103 209.148376,57.573334 210.488953,56.033173 
	C211.712448,57.680199 213.710373,59.204460 213.995056,61.000301 
	C214.553925,64.525787 214.159439,68.202400 214.159439,71.792412 
	C216.001709,71.792412 217.270065,71.792412 218.891357,71.792412 
	C218.891357,67.772873 219.334351,63.901588 218.737473,60.197887 
	C218.331528,57.678917 217.028809,54.240211 215.110229,53.309891 
	C212.917740,52.246750 209.597900,53.508492 206.767929,53.759995 
	C206.890518,54.000732 207.013092,54.241470 207.135666,54.482204 
	C205.575211,53.820160 204.014771,53.158115 201.973312,52.291992 
	C201.973312,58.030941 201.973312,62.683830 201.973328,68.289627 
M224.090286,62.466450 
	C221.312912,64.814232 220.898911,67.656212 223.379059,70.199638 
	C226.609863,73.512833 230.165466,72.782623 232.410980,70.721054 
	C234.841736,71.335167 236.457306,71.743332 238.447128,72.246056 
	C238.447128,67.245827 238.501404,63.110836 238.432205,58.977913 
	C238.359573,54.640381 235.733719,52.784302 231.730072,52.601173 
	C227.844315,52.423443 224.228058,52.904438 222.464005,58.831886 
	C224.974060,57.783695 226.437408,56.931381 228.012146,56.583973 
	C229.535751,56.247841 231.481461,55.888592 232.664551,56.558651 
	C233.609634,57.093914 233.687607,59.160198 234.101410,60.399982 
	C230.546356,61.006310 227.652832,61.499813 224.090286,62.466450 
M36.441631,77.208961 
	C40.570381,79.970123 44.677391,79.883408 48.289539,76.504410 
	C51.399353,73.595314 51.940269,69.853775 50.084644,65.995049 
	C48.197304,62.070370 44.840832,60.538940 40.632149,61.069073 
	C33.198456,62.005432 30.786812,69.972305 36.441631,77.208961 
M70.760963,78.696648 
	C78.071289,74.801926 79.270691,66.430840 73.021805,62.455906 
	C69.424194,60.167446 65.687317,60.294689 62.341976,62.935783 
	C58.966991,65.600273 58.057602,69.291611 59.566803,73.233032 
	C61.363728,77.925880 65.122231,79.564697 70.760963,78.696648 
M175.330322,53.057468 
	C173.879593,57.700401 172.428864,62.343334 170.757675,67.691780 
	C166.074173,52.662987 166.074173,52.662987 161.694183,53.499985 
	C163.887527,59.725746 166.058990,65.889366 168.607452,73.123138 
	C170.788422,71.816238 173.222580,71.228241 173.812256,69.850693 
	C176.131531,64.432556 177.870392,58.765961 179.950867,52.831772 
	C178.320023,52.831772 177.169968,52.831772 175.330322,53.057468 
M159.362015,52.573860 
	C157.358475,53.289963 155.354919,54.006065 154.291519,54.386147 
	C152.376099,53.646618 150.924805,53.086285 149.029907,52.354683 
	C149.029907,59.351059 149.029907,65.436470 149.029907,71.676575 
	C150.506393,71.676575 151.819519,71.676575 153.323532,71.676575 
	C153.323532,68.849281 153.342484,66.370491 153.319077,63.892090 
	C153.284348,60.211823 153.456558,56.798847 158.454605,56.425941 
	C159.009659,56.384525 159.411102,54.284119 159.362015,52.573860 
z"/>
<path fill="#101010" opacity="1.000000" stroke="none" 
	d="
M119.683266,71.918610 
	C110.887604,73.685501 106.871277,71.857285 104.690353,64.150154 
	C107.157112,65.377937 108.725266,66.333176 110.415993,66.955246 
	C112.476166,67.713257 114.659195,68.678780 116.750183,68.594086 
	C117.875778,68.548500 119.641624,66.571083 119.773285,65.323349 
	C119.879097,64.320641 118.163078,62.672726 116.895889,62.080643 
	C114.818542,61.110008 112.037346,61.311237 110.310753,60.011562 
	C108.284737,58.486496 105.882782,55.913761 105.831375,53.743607 
	C105.778992,51.532101 107.871758,48.402103 109.923157,47.173809 
	C115.698761,43.715626 122.524590,46.734348 124.264420,54.210861 
	C122.021469,53.127914 120.589684,52.275665 119.048782,51.733631 
	C117.149628,51.065567 115.142479,50.231144 113.215904,50.308876 
	C112.213158,50.349335 110.815697,52.072300 110.497688,53.273785 
	C110.310036,53.982738 111.697693,55.528099 112.709312,56.038647 
	C114.305069,56.844009 116.167885,57.148235 117.940231,57.569695 
	C121.398796,58.392147 124.264336,59.908424 124.779282,63.826199 
	C125.280426,67.638901 123.352425,70.161133 119.683266,71.918610 
z"/>
<path fill="#141414" opacity="1.000000" stroke="none" 
	d="
M144.571686,68.591278 
	C140.405136,72.706635 135.036972,73.506004 131.349136,70.821465 
	C127.839966,68.266983 126.578659,61.450611 128.813202,57.116699 
	C130.842361,53.181126 134.996384,51.474880 139.407440,52.785229 
	C144.564285,54.317127 145.212784,58.479702 145.475098,63.473331 
	C141.268784,63.473331 137.200882,63.473331 133.111740,63.473331 
	C133.383911,68.635185 135.701889,70.102722 139.579178,68.069321 
	C142.922913,66.315742 142.922913,66.315727 144.571686,68.591278 
M140.020966,57.619694 
	C135.791885,54.833214 133.760086,55.680832 133.050262,60.963551 
	C135.193893,60.963551 137.300247,61.119194 139.348816,60.844231 
	C139.809082,60.782455 140.067352,59.215813 140.020966,57.619694 
z"/>
<path fill="#111110" opacity="1.000000" stroke="none" 
	d="
M192.920319,70.631378 
	C191.802505,70.824287 190.826523,71.858749 189.913483,71.805893 
	C187.561630,71.669746 184.897202,71.599022 183.023804,70.432426 
	C181.801941,69.671570 180.752686,66.457886 181.387268,65.374916 
	C182.481369,63.507683 184.782806,62.052746 186.889648,61.167015 
	C188.589127,60.452541 190.748657,60.832340 192.674515,60.728264 
	C192.728470,58.414742 192.220535,58.285728 181.923370,57.711128 
	C183.567627,52.982952 187.140976,52.310684 191.336060,52.608833 
	C195.869415,52.931030 197.716171,55.637447 197.817520,59.822906 
	C197.913483,63.785496 197.838150,67.752228 197.838150,72.434006 
	C195.911423,71.842934 194.501129,71.410278 192.920319,70.631378 
M190.202011,68.951126 
	C191.353546,67.319084 192.505096,65.687050 193.656631,64.055008 
	C193.133850,63.458153 192.611069,62.861294 192.088287,62.264435 
	C189.976608,63.507679 187.864944,64.750923 185.753265,65.994171 
	C186.961182,66.989098 188.169083,67.984016 190.202011,68.951126 
z"/>
<path fill="#0E0E0E" opacity="1.000000" stroke="none" 
	d="
M201.973328,67.813171 
	C201.973312,62.683830 201.973312,58.030941 201.973312,52.291992 
	C204.014771,53.158115 205.575211,53.820160 207.135666,54.482204 
	C207.013092,54.241470 206.890518,54.000732 206.767929,53.759995 
	C209.597900,53.508492 212.917740,52.246750 215.110229,53.309891 
	C217.028809,54.240211 218.331528,57.678917 218.737473,60.197887 
	C219.334351,63.901588 218.891357,67.772873 218.891357,71.792412 
	C217.270065,71.792412 216.001709,71.792412 214.159439,71.792412 
	C214.159439,68.202400 214.553925,64.525787 213.995056,61.000301 
	C213.710373,59.204460 211.712448,57.680199 210.488953,56.033169 
	C209.148376,57.573334 206.940399,58.966103 206.648392,60.684456 
	C206.046463,64.226654 206.467239,67.942635 206.467239,71.448593 
	C202.733871,72.906952 201.500809,71.653450 201.973328,67.813171 
z"/>
<path fill="#070707" opacity="1.000000" stroke="none" 
	d="
M224.424789,62.229881 
	C227.652832,61.499813 230.546356,61.006310 234.101410,60.399982 
	C233.687607,59.160198 233.609634,57.093914 232.664551,56.558651 
	C231.481461,55.888592 229.535751,56.247841 228.012146,56.583973 
	C226.437408,56.931381 224.974060,57.783695 222.464005,58.831886 
	C224.228058,52.904438 227.844315,52.423443 231.730072,52.601173 
	C235.733719,52.784302 238.359573,54.640381 238.432205,58.977913 
	C238.501404,63.110836 238.447128,67.245827 238.447128,72.246056 
	C236.457306,71.743332 234.841736,71.335167 232.410980,70.721054 
	C230.165466,72.782623 226.609863,73.512833 223.379059,70.199638 
	C220.898911,67.656212 221.312912,64.814232 224.424789,62.229881 
M228.895447,68.978645 
	C233.227341,69.259483 234.109894,66.837509 233.707840,62.115204 
	C230.952637,63.321163 228.782806,64.177544 226.783066,65.329254 
	C226.628571,65.418228 227.669983,67.583672 228.895447,68.978645 
z"/>
<path fill="#F90E72" opacity="1.000000" stroke="none" 
	d="
M36.136589,76.966263 
	C30.786812,69.972305 33.198456,62.005432 40.632149,61.069073 
	C44.840832,60.538940 48.197304,62.070370 50.084644,65.995049 
	C51.940269,69.853775 51.399353,73.595314 48.289539,76.504410 
	C44.677391,79.883408 40.570381,79.970123 36.136589,76.966263 
M39.472763,65.810341 
	C38.801281,67.811295 37.379368,69.949738 37.712257,71.766678 
	C37.948959,73.058601 40.562656,74.755173 42.092930,74.732735 
	C43.611401,74.710472 45.709793,73.079651 46.482674,71.596199 
	C48.315121,68.079010 45.169155,65.136002 39.472763,65.810341 
z"/>
<path fill="#F90E72" opacity="1.000000" stroke="none" 
	d="
M70.374596,78.791931 
	C65.122231,79.564697 61.363728,77.925880 59.566803,73.233032 
	C58.057602,69.291611 58.966991,65.600273 62.341976,62.935783 
	C65.687317,60.294689 69.424194,60.167446 73.021805,62.455906 
	C79.270691,66.430840 78.071289,74.801926 70.374596,78.791931 
M64.293694,73.157181 
	C66.703453,75.546730 69.473511,76.000877 71.470726,73.150719 
	C72.445526,71.759621 72.758942,68.611465 71.852776,67.521919 
	C70.708893,66.146553 67.657150,65.064613 66.067543,65.635559 
	C63.188766,66.669518 61.993778,69.385750 64.293694,73.157181 
z"/>
<path fill="#F61576" opacity="1.000000" stroke="none" 
	d="
M59.972176,48.768715 
	C61.249741,50.832554 62.413250,52.980801 63.852249,54.925167 
	C64.588905,55.920540 65.818535,56.551067 66.825371,57.346485 
	C65.585823,57.909618 64.145592,59.179371 63.146561,58.895641 
	C60.717770,58.205841 58.493904,56.794487 56.187492,55.673786 
	C56.260601,55.202995 56.333714,54.732208 56.406822,54.261417 
	C55.211651,55.199287 54.016479,56.137154 52.821312,57.075020 
	C53.369087,57.076832 53.916866,57.078644 54.464645,57.080452 
	C55.319031,61.022690 56.318653,64.943268 56.912220,68.924393 
	C57.039616,69.778854 55.698040,70.852341 55.033157,71.824928 
	C54.346725,70.874825 52.969700,69.824028 53.091061,68.991714 
	C53.677742,64.968109 51.638477,62.467182 48.916000,60.025265 
	C46.702267,58.039665 46.191372,55.889927 49.375862,54.077179 
	C52.369274,52.373203 55.274551,50.514400 58.552307,48.366413 
	C59.248066,48.262310 59.610119,48.515514 59.972176,48.768715 
z"/>
<path fill="#10100F" opacity="1.000000" stroke="none" 
	d="
M175.675110,52.944618 
	C177.169968,52.831772 178.320023,52.831772 179.950867,52.831772 
	C177.870392,58.765961 176.131531,64.432556 173.812256,69.850693 
	C173.222580,71.228241 170.788422,71.816238 168.607452,73.123138 
	C166.058990,65.889366 163.887527,59.725746 161.694183,53.499985 
	C166.074173,52.662987 166.074173,52.662987 170.757675,67.691780 
	C172.428864,62.343334 173.879593,57.700401 175.675110,52.944618 
z"/>
<path fill="#070707" opacity="1.000000" stroke="none" 
	d="
M159.622894,52.856239 
	C159.411102,54.284119 159.009659,56.384525 158.454605,56.425941 
	C153.456558,56.798847 153.284348,60.211823 153.319077,63.892090 
	C153.342484,66.370491 153.323532,68.849281 153.323532,71.676575 
	C151.819519,71.676575 150.506393,71.676575 149.029907,71.676575 
	C149.029907,65.436470 149.029907,59.351059 149.029907,52.354683 
	C150.924805,53.086285 152.376099,53.646618 154.291519,54.386147 
	C155.354919,54.006065 157.358475,53.289963 159.622894,52.856239 
z"/>
<path fill="#FA0B71" opacity="1.000000" stroke="none" 
	d="
M60.347687,48.874382 
	C59.610119,48.515514 59.248066,48.262310 58.656197,47.992317 
	C56.033787,45.480061 56.314846,42.808376 59.265213,41.613907 
	C60.615784,41.067116 64.040657,42.477333 64.609032,43.814400 
	C65.849373,46.732224 64.164093,48.844231 60.347687,48.874382 
z"/>
<path fill="#FAFAFA" opacity="1.000000" stroke="none" 
	d="
M140.219788,57.980820 
	C140.067352,59.215813 139.809082,60.782455 139.348816,60.844231 
	C137.300247,61.119194 135.193893,60.963551 133.050262,60.963551 
	C133.760086,55.680832 135.791885,54.833214 140.219788,57.980820 
z"/>
<path fill="#F7F7F7" opacity="1.000000" stroke="none" 
	d="
M189.789505,68.965027 
	C188.169083,67.984016 186.961182,66.989098 185.753265,65.994171 
	C187.864944,64.750923 189.976608,63.507679 192.088287,62.264435 
	C192.611069,62.861294 193.133850,63.458153 193.656631,64.055008 
	C192.505096,65.687050 191.353546,67.319084 189.789505,68.965027 
z"/>
<path fill="#F1F1F0" opacity="1.000000" stroke="none" 
	d="
M228.525497,68.881317 
	C227.669983,67.583672 226.628571,65.418228 226.783066,65.329254 
	C228.782806,64.177544 230.952637,63.321163 233.707840,62.115204 
	C234.109894,66.837509 233.227341,69.259483 228.525497,68.881317 
z"/>
<path fill="#FDF9FB" opacity="1.000000" stroke="none" 
	d="
M39.777931,65.564743 
	C45.169155,65.136002 48.315121,68.079010 46.482674,71.596199 
	C45.709793,73.079651 43.611401,74.710472 42.092930,74.732735 
	C40.562656,74.755173 37.948959,73.058601 37.712257,71.766678 
	C37.379368,69.949738 38.801281,67.811295 39.777931,65.564743 
z"/>
<path fill="#FDFAFB" opacity="1.000000" stroke="none" 
	d="
M64.069183,72.843689 
	C61.993778,69.385750 63.188766,66.669518 66.067543,65.635559 
	C67.657150,65.064613 70.708893,66.146553 71.852776,67.521919 
	C72.758942,68.611465 72.445526,71.759621 71.470726,73.150719 
	C69.473511,76.000877 66.703453,75.546730 64.069183,72.843689 
z"/>
</svg>