<svg version="1.1" id="Layer_1" xmlns="http://www.w3.org/2000/svg" xmlns:xlink="http://www.w3.org/1999/xlink" x="0px" y="0px"
	 width="100%" viewBox="0 0 282 116" enable-background="new 0 0 282 116" xml:space="preserve">
<path fill="#19191C" opacity="1.000000" stroke="none" 
	d="
M260.000122,117.000000 
	C173.333420,117.000000 87.166779,117.000000 1.000103,117.000000 
	C1.000069,78.333389 1.000069,39.666782 1.000035,1.000129 
	C94.999916,1.000086 188.999832,1.000086 282.999817,1.000043 
	C282.999878,39.666569 282.999878,78.333138 282.999939,116.999855 
	C275.500061,117.000000 268.000122,117.000000 260.000122,117.000000 
M59.280861,48.588402 
	C61.136429,47.757145 63.230587,47.196869 64.688126,45.913548 
	C65.076569,45.571541 63.896599,42.476410 62.726639,41.647461 
	C61.810642,40.998447 58.602070,41.634613 58.487503,42.155899 
	C58.077374,44.022007 58.550434,46.082226 58.381405,48.802048 
	C55.432549,50.561428 52.518230,52.382301 49.525314,54.063225 
	C46.413452,55.810944 46.678020,57.933624 48.953777,59.974422 
	C51.676052,62.415646 53.646091,64.951790 53.089874,68.947334 
	C52.973877,69.780617 54.372108,70.824699 55.072521,71.771637 
	C55.725574,70.776711 57.054871,69.673492 56.915863,68.805397 
	C56.278156,64.822998 55.229809,60.906357 54.328865,56.966106 
	C53.828777,56.978611 53.328686,56.991116 52.828598,57.003620 
	C53.961765,56.128952 55.094936,55.254288 56.228104,54.379620 
	C56.145741,54.848667 56.063377,55.317711 55.981014,55.786758 
	C58.782440,56.859661 61.544292,58.072517 64.419228,58.885448 
	C64.983139,59.044899 65.984497,57.657356 66.784103,56.983303 
	C66.138435,56.338562 65.541626,55.199127 64.839142,55.129757 
	C60.441391,54.695480 59.565277,51.356060 59.280861,48.588402 
M105.925423,68.368301 
	C109.433418,73.264229 114.519981,73.626534 119.295769,71.692070 
	C121.676826,70.727608 124.001778,67.480423 124.623360,64.856308 
	C125.409302,61.538280 122.889374,59.013657 119.428642,58.030972 
	C117.196289,57.397087 114.834618,57.053814 112.763847,56.083275 
	C111.682404,55.576416 110.319534,53.838234 110.499474,52.939724 
	C110.719925,51.838966 112.440643,50.248096 113.479782,50.272476 
	C115.424400,50.318104 117.351501,51.356407 119.274048,52.016262 
	C120.739349,52.519176 122.186348,53.075417 124.233856,53.824718 
	C122.353081,46.932964 116.540718,44.070652 110.763229,46.984695 
	C108.514511,48.118904 105.981247,51.225471 105.939400,53.477516 
	C105.898430,55.682129 108.511665,58.393654 110.619576,60.036030 
	C112.309990,61.353123 115.089958,61.173317 117.187141,62.105915 
	C118.338715,62.618008 119.991081,64.292389 119.801865,65.025909 
	C119.469742,66.313477 117.823936,68.259735 116.856354,68.188622 
	C114.472130,68.013405 112.172455,66.810486 109.815071,66.099396 
	C108.481819,65.697227 107.101723,65.450386 105.742722,65.133575 
	C105.682281,65.985191 105.621841,66.836800 105.925423,68.368301 
M130.477325,70.012627 
	C136.733932,73.990486 141.930420,72.970116 144.831497,67.050606 
	C141.077118,65.244385 134.707932,73.196770 132.332214,63.491867 
	C137.045593,63.491867 141.113083,63.491867 145.146393,63.491867 
	C145.332306,56.099766 142.145538,52.250481 136.418579,52.410000 
	C130.970566,52.561752 127.407516,56.744804 127.873268,63.005985 
	C128.036697,65.203087 129.237701,67.323021 130.477325,70.012627 
M182.436829,70.110802 
	C187.459030,70.845306 192.481232,71.579811 197.816559,72.360107 
	C197.816559,67.564781 197.871582,63.755215 197.801270,59.947960 
	C197.729141,56.042587 196.344666,53.233654 191.890701,52.774998 
	C187.521790,52.325089 183.789886,52.812828 181.296387,58.898232 
	C184.529816,57.695763 186.505508,56.714588 188.596176,56.242172 
	C191.615860,55.559834 193.392822,56.638832 192.918671,60.357433 
	C190.631821,60.624897 188.493317,60.719051 186.424469,61.148605 
	C181.747925,62.119606 180.461441,64.610390 182.436829,70.110802 
M201.892212,59.538784 
	C201.892212,63.659889 201.892212,67.780991 201.892212,72.155197 
	C203.668457,71.965370 204.894241,71.834366 206.584427,71.653732 
	C206.584427,67.496811 206.220245,63.630093 206.773560,59.899460 
	C206.979019,58.514179 209.335144,57.447876 210.710495,56.236107 
	C211.856506,57.604641 213.801147,58.871250 213.991379,60.361771 
	C214.467590,64.092804 214.148544,67.925339 214.148544,71.802071 
	C215.970078,71.802071 217.230286,71.802071 218.812042,71.802071 
	C218.812042,67.455643 218.982071,63.312611 218.759232,59.190819 
	C218.574875,55.781166 217.183487,52.758728 213.226562,52.698380 
	C209.499435,52.641537 205.762253,53.243931 201.892212,53.567795 
	C201.892212,55.241341 201.892212,56.898846 201.892212,59.538784 
M232.892685,70.461517 
	C234.514755,71.102585 236.136826,71.743652 238.394897,72.636078 
	C238.394897,67.699196 238.404007,63.740841 238.392273,59.782547 
	C238.381180,56.041779 237.136322,53.334072 232.903366,52.851738 
	C228.576599,52.358707 224.678452,52.563354 222.214798,58.746296 
	C225.436722,57.610352 227.542068,56.536583 229.764938,56.164146 
	C232.889313,55.640663 234.494308,57.014984 233.646744,60.379086 
	C230.989960,60.744835 228.138443,60.433567 226.178497,61.608971 
	C224.291138,62.740845 222.047729,65.599617 222.308334,67.350166 
	C222.577469,69.157928 225.483810,70.950020 227.611740,71.951828 
	C228.747604,72.486603 230.675568,71.338882 232.892685,70.461517 
M47.498390,77.147102 
	C50.874306,74.191406 52.031208,70.621666 50.205540,66.410538 
	C48.572697,62.644169 45.335396,60.205730 41.528145,61.231838 
	C38.568218,62.029583 35.437084,64.456512 33.726830,67.047127 
	C31.639900,70.208305 33.034042,73.937416 35.821857,76.520592 
	C39.117950,79.574730 42.926441,79.873329 47.498390,77.147102 
M60.028172,65.819458 
	C58.109772,69.723610 58.406895,73.791908 61.775047,76.222191 
	C64.139420,77.928192 67.933594,78.759888 70.844711,78.329140 
	C74.752502,77.750923 76.873985,74.346146 76.977631,70.255898 
	C77.080841,66.183205 75.145256,63.180267 71.333504,61.688564 
	C66.850739,59.934273 63.215225,61.348129 60.028172,65.819458 
M172.264694,62.699261 
	C171.847870,63.882988 171.431046,65.066711 170.867325,66.667595 
	C164.690460,52.928204 164.690460,52.928204 161.720886,53.629601 
	C163.889908,59.711967 166.050476,65.770653 168.667419,73.109116 
	C170.727783,71.778900 173.220810,71.081604 173.874985,69.582085 
	C176.166122,64.330284 177.823288,58.801926 179.743988,53.313545 
	C175.241898,52.836258 175.218353,52.829056 174.189743,56.192909 
	C173.607651,58.096504 173.117935,60.028343 172.264694,62.699261 
M153.240997,67.215591 
	C153.484695,62.520840 151.630341,56.662975 159.479935,56.146263 
	C159.791000,56.125786 159.968124,54.070797 160.234055,52.841770 
	C156.101471,53.065201 152.639404,53.252380 149.099533,53.443764 
	C149.099533,59.515175 149.099533,65.586174 149.099533,71.621140 
	C152.842697,72.981239 153.619034,71.196724 153.240997,67.215591 
z"/>
<path fill="#F4F4F4" opacity="1.000000" stroke="none" 
	d="
M105.743408,68.028358 
	C105.621841,66.836800 105.682281,65.985191 105.742722,65.133575 
	C107.101723,65.450386 108.481819,65.697227 109.815071,66.099396 
	C112.172455,66.810486 114.472130,68.013405 116.856354,68.188622 
	C117.823936,68.259735 119.469742,66.313477 119.801865,65.025909 
	C119.991081,64.292389 118.338715,62.618008 117.187141,62.105915 
	C115.089958,61.173317 112.309990,61.353123 110.619576,60.036030 
	C108.511665,58.393654 105.898430,55.682129 105.939400,53.477516 
	C105.981247,51.225471 108.514511,48.118904 110.763229,46.984695 
	C116.540718,44.070652 122.353081,46.932964 124.233856,53.824718 
	C122.186348,53.075417 120.739349,52.519176 119.274048,52.016262 
	C117.351501,51.356407 115.424400,50.318104 113.479782,50.272476 
	C112.440643,50.248096 110.719925,51.838966 110.499474,52.939724 
	C110.319534,53.838234 111.682404,55.576416 112.763847,56.083275 
	C114.834618,57.053814 117.196289,57.397087 119.428642,58.030972 
	C122.889374,59.013657 125.409302,61.538280 124.623360,64.856308 
	C124.001778,67.480423 121.676826,70.727608 119.295769,71.692070 
	C114.519981,73.626534 109.433418,73.264229 105.743408,68.028358 
z"/>
<path fill="#EFEFEF" opacity="1.000000" stroke="none" 
	d="
M130.221130,69.745407 
	C129.237701,67.323021 128.036697,65.203087 127.873268,63.005985 
	C127.407516,56.744804 130.970566,52.561752 136.418579,52.410000 
	C142.145538,52.250481 145.332306,56.099766 145.146393,63.491867 
	C141.113083,63.491867 137.045593,63.491867 132.332214,63.491867 
	C134.707932,73.196770 141.077118,65.244385 144.831497,67.050606 
	C141.930420,72.970116 136.733932,73.990486 130.221130,69.745407 
M135.646042,56.072983 
	C134.521820,57.172058 133.397598,58.271137 131.293930,60.327755 
	C135.488022,60.327755 138.098373,60.327755 140.708725,60.327755 
	C140.943817,59.912640 141.178909,59.497528 141.414001,59.082413 
	C139.756683,58.038715 138.099380,56.995018 135.646042,56.072983 
z"/>
<path fill="#EEEEEE" opacity="1.000000" stroke="none" 
	d="
M182.175720,69.810333 
	C180.461441,64.610390 181.747925,62.119606 186.424469,61.148605 
	C188.493317,60.719051 190.631821,60.624897 192.918671,60.357433 
	C193.392822,56.638832 191.615860,55.559834 188.596176,56.242172 
	C186.505508,56.714588 184.529816,57.695763 181.296387,58.898232 
	C183.789886,52.812828 187.521790,52.325089 191.890701,52.774998 
	C196.344666,53.233654 197.729141,56.042587 197.801270,59.947960 
	C197.871582,63.755215 197.816559,67.564781 197.816559,72.360107 
	C192.481232,71.579811 187.459030,70.845306 182.175720,69.810333 
M186.213623,67.881729 
	C191.088440,69.522179 192.523727,68.646744 192.736176,63.438396 
	C190.230743,64.620621 185.985947,61.598660 186.213623,67.881729 
z"/>
<path fill="#F1F1F1" opacity="1.000000" stroke="none" 
	d="
M201.892212,59.047569 
	C201.892212,56.898846 201.892212,55.241341 201.892212,53.567795 
	C205.762253,53.243931 209.499435,52.641537 213.226562,52.698380 
	C217.183487,52.758728 218.574875,55.781166 218.759232,59.190819 
	C218.982071,63.312611 218.812042,67.455643 218.812042,71.802071 
	C217.230286,71.802071 215.970078,71.802071 214.148544,71.802071 
	C214.148544,67.925339 214.467590,64.092804 213.991379,60.361771 
	C213.801147,58.871250 211.856506,57.604641 210.710495,56.236107 
	C209.335144,57.447876 206.979019,58.514179 206.773560,59.899460 
	C206.220245,63.630093 206.584427,67.496811 206.584427,71.653732 
	C204.894241,71.834366 203.668457,71.965370 201.892212,72.155197 
	C201.892212,67.780991 201.892212,63.659889 201.892212,59.047569 
z"/>
<path fill="#F7F7F7" opacity="1.000000" stroke="none" 
	d="
M232.569366,70.706017 
	C230.675568,71.338882 228.747604,72.486603 227.611740,71.951828 
	C225.483810,70.950020 222.577469,69.157928 222.308334,67.350166 
	C222.047729,65.599617 224.291138,62.740845 226.178497,61.608971 
	C228.138443,60.433567 230.989960,60.744835 233.646744,60.379086 
	C234.494308,57.014984 232.889313,55.640663 229.764938,56.164146 
	C227.542068,56.536583 225.436722,57.610352 222.214798,58.746296 
	C224.678452,52.563354 228.576599,52.358707 232.903366,52.851738 
	C237.136322,53.334072 238.381180,56.041779 238.392273,59.782547 
	C238.404007,63.740841 238.394897,67.699196 238.394897,72.636078 
	C236.136826,71.743652 234.514755,71.102585 232.569366,70.706017 
M230.314011,68.856827 
	C231.719437,67.438187 233.124863,66.019547 234.530289,64.600906 
	C234.000290,63.957424 233.470306,63.313938 232.940308,62.670452 
	C230.700668,63.808247 228.461044,64.946037 226.221405,66.083847 
	C227.334671,67.035065 228.447937,67.986290 230.314011,68.856827 
z"/>
<path fill="#70F098" opacity="1.000000" stroke="none" 
	d="
M47.181858,77.372429 
	C42.926441,79.873329 39.117950,79.574730 35.821857,76.520592 
	C33.034042,73.937416 31.639900,70.208305 33.726830,67.047127 
	C35.437084,64.456512 38.568218,62.029583 41.528145,61.231838 
	C45.335396,60.205730 48.572697,62.644169 50.205540,66.410538 
	C52.031208,70.621666 50.874306,74.191406 47.181858,77.372429 
M42.387569,65.026924 
	C40.601166,66.615646 38.048569,67.927132 37.333466,69.903488 
	C36.943039,70.982513 39.376656,74.043365 41.073532,74.613960 
	C42.431637,75.070633 45.374817,73.586594 46.250679,72.138809 
	C48.197403,68.920906 46.416039,66.502808 42.387569,65.026924 
z"/>
<path fill="#70F098" opacity="1.000000" stroke="none" 
	d="
M60.215210,65.476990 
	C63.215225,61.348129 66.850739,59.934273 71.333504,61.688564 
	C75.145256,63.180267 77.080841,66.183205 76.977631,70.255898 
	C76.873985,74.346146 74.752502,77.750923 70.844711,78.329140 
	C67.933594,78.759888 64.139420,77.928192 61.775047,76.222191 
	C58.406895,73.791908 58.109772,69.723610 60.215210,65.476990 
M63.134705,68.845459 
	C63.635548,73.993874 66.950699,76.609085 70.295639,74.208504 
	C71.648529,73.237564 72.791000,70.950119 72.714760,69.323380 
	C72.649582,67.932747 70.632622,65.467300 69.607399,65.531403 
	C67.490463,65.663765 65.459114,67.165222 63.134705,68.845459 
z"/>
<path fill="#6CE792" opacity="1.000000" stroke="none" 
	d="
M58.609497,48.015182 
	C59.565277,51.356060 60.441391,54.695480 64.839142,55.129757 
	C65.541626,55.199127 66.138435,56.338562 66.784103,56.983299 
	C65.984497,57.657356 64.983139,59.044899 64.419228,58.885448 
	C61.544292,58.072517 58.782440,56.859661 55.981014,55.786758 
	C56.063377,55.317711 56.145741,54.848667 56.228104,54.379620 
	C55.094936,55.254288 53.961765,56.128952 52.828598,57.003620 
	C53.328686,56.991116 53.828777,56.978611 54.328865,56.966106 
	C55.229809,60.906357 56.278156,64.822998 56.915863,68.805397 
	C57.054871,69.673492 55.725574,70.776711 55.072521,71.771637 
	C54.372108,70.824699 52.973877,69.780617 53.089874,68.947334 
	C53.646091,64.951790 51.676052,62.415646 48.953777,59.974422 
	C46.678020,57.933624 46.413452,55.810944 49.525314,54.063225 
	C52.518230,52.382301 55.432549,50.561428 58.513664,48.441566 
	C58.645927,48.081081 58.609497,48.015182 58.609497,48.015182 
z"/>
<path fill="#F2F2F2" opacity="1.000000" stroke="none" 
	d="
M172.425659,62.323357 
	C173.117935,60.028343 173.607651,58.096504 174.189743,56.192909 
	C175.218353,52.829056 175.241898,52.836258 179.743988,53.313545 
	C177.823288,58.801926 176.166122,64.330284 173.874985,69.582085 
	C173.220810,71.081604 170.727783,71.778900 168.667419,73.109116 
	C166.050476,65.770653 163.889908,59.711967 161.720886,53.629601 
	C164.690460,52.928204 164.690460,52.928204 170.867325,66.667595 
	C171.431046,65.066711 171.847870,63.882988 172.425659,62.323357 
z"/>
<path fill="#F9F9F9" opacity="1.000000" stroke="none" 
	d="
M153.240967,67.668182 
	C153.619034,71.196724 152.842697,72.981239 149.099533,71.621140 
	C149.099533,65.586174 149.099533,59.515175 149.099533,53.443764 
	C152.639404,53.252380 156.101471,53.065201 160.234055,52.841770 
	C159.968124,54.070797 159.791000,56.125786 159.479935,56.146263 
	C151.630341,56.662975 153.484695,62.520840 153.240967,67.668182 
z"/>
<path fill="#70F098" opacity="1.000000" stroke="none" 
	d="
M58.945179,48.301792 
	C58.609497,48.015182 58.645927,48.081081 58.667694,48.075058 
	C58.550434,46.082226 58.077374,44.022007 58.487503,42.155899 
	C58.602070,41.634613 61.810642,40.998447 62.726639,41.647461 
	C63.896599,42.476410 65.076569,45.571541 64.688126,45.913548 
	C63.230587,47.196869 61.136429,47.757145 58.945179,48.301792 
z"/>
<path fill="#414143" opacity="1.000000" stroke="none" 
	d="
M136.044052,56.012154 
	C138.099380,56.995018 139.756683,58.038715 141.414001,59.082413 
	C141.178909,59.497528 140.943817,59.912640 140.708725,60.327755 
	C138.098373,60.327755 135.488022,60.327755 131.293930,60.327755 
	C133.397598,58.271137 134.521820,57.172058 136.044052,56.012154 
z"/>
<path fill="#2D2D2F" opacity="1.000000" stroke="none" 
	d="
M186.006958,67.530319 
	C185.985947,61.598660 190.230743,64.620621 192.736176,63.438396 
	C192.523727,68.646744 191.088440,69.522179 186.006958,67.530319 
z"/>
<path fill="#323235" opacity="1.000000" stroke="none" 
	d="
M229.937607,68.897171 
	C228.447937,67.986290 227.334671,67.035065 226.221405,66.083839 
	C228.461044,64.946037 230.700668,63.808247 232.940308,62.670452 
	C233.470306,63.313938 234.000290,63.957424 234.530289,64.600906 
	C233.124863,66.019547 231.719437,67.438187 229.937607,68.897171 
z"/>
<path fill="#1C2321" opacity="1.000000" stroke="none" 
	d="
M42.770493,65.080772 
	C46.416039,66.502808 48.197403,68.920906 46.250679,72.138809 
	C45.374817,73.586594 42.431637,75.070633 41.073532,74.613960 
	C39.376656,74.043365 36.943039,70.982513 37.333466,69.903488 
	C38.048569,67.927132 40.601166,66.615646 42.770493,65.080772 
z"/>
<path fill="#1C2321" opacity="1.000000" stroke="none" 
	d="
M63.263634,68.474480 
	C65.459114,67.165222 67.490463,65.663765 69.607399,65.531403 
	C70.632622,65.467300 72.649582,67.932747 72.714760,69.323380 
	C72.791000,70.950119 71.648529,73.237564 70.295639,74.208504 
	C66.950699,76.609085 63.635548,73.993874 63.263634,68.474480 
z"/>
</svg>